<svg viewBox="0 0 500 500" xmlns="http://www.w3.org/2000/svg"><circle cx="246.475" cy="249.634" fill="#6e8f70" r="237.939"/><g fill="#d8d8d8" stroke="#fff" stroke-linecap="round" stroke-width="5"><path d="m99.68 373.027-.158-181.005"/><path d="m172.117 399.224-.282-279.952"/><path d="m244.057 441.391-1.664-413.169"/><path d="m316.612 414.178-2.048-334.286"/><path d="m388.286 387.863-1.683-217.492"/><path d="m191.728 186.535-39.098-54.505"/><path d="m262.924 124.055-39.098-54.505"/><path d="m263.075 107.482-39.098-54.505"/><path d="m126.034 292.036-39.098-54.505"/><path d="m120.587 261.6-39.098-54.505"/><path d="m341.017 212.569-39.098-54.505"/><path d="m404.021 318.121-39.098-54.505"/><path d="m339.222 278.765-39.098-54.505"/><path d="m263.269 308.633-39.098-54.505"/><path d="m279.472 142.459-73.556 70.658"/><path d="m287.878 124.053-73.556 70.658"/><path d="m197.061 271.419-56.879 51.643"/><path d="m358.258 128.824-73.556 70.658"/><path d="m427.371 148.761-73.556 70.658"/><path d="m428.443 263.698-73.556 70.658"/><path d="m139.706 182.762-73.556 70.658"/></g></svg>