<?xml version="1.0" encoding="utf-8"?>
<svg viewBox="73.501 146.897 349.202 350" xmlns="http://www.w3.org/2000/svg" xmlns:bx="https://boxy-svg.com">
  <circle style="fill: rgb(215, 218, 128);" cx="248.242" cy="320.404" r="168.626"/>
  <path style="fill: none; stroke: rgb(255, 255, 255); stroke-width: 5px; stroke-linecap: round;" d="M 110.206 414.968 C 120.59 461.201 405.595 314.653 409.781 364.345"/>
  <path style="fill: none; stroke-linecap: round; stroke-width: 5px; stroke: rgb(255, 255, 255);" d="M 132.033 397.752 C 151.447 412.332 396.503 288.565 392.815 357.234" transform="matrix(1, 0, 0, 1, 2.496609, 46.75137)"/>
  <path style="fill: none; stroke-linecap: round; stroke-width: 5px; stroke: rgb(255, 255, 255);" d="M 95.933 391.964 C 106.797 437.358 409.87 296.501 414.249 345.29"/>
  <path style="fill: rgb(216, 216, 216); stroke: rgb(0, 0, 0);" d="M 573.496 239.968"/>
  <path style="fill: rgb(216, 216, 216); stroke: rgb(0, 0, 0);" d="M 480.167 124.452"/>
  <path style="fill: rgb(216, 216, 216); stroke-width: 5px; stroke-linecap: round; stroke: rgb(255, 255, 255);" d="M 182.005 323.845 L 188.536 316.962"/>
  <path style="fill: rgb(216, 216, 216); stroke-width: 5px; stroke-linecap: round; stroke: rgb(255, 255, 255);" d="M 182.582 334.002 L 189.113 327.119"/>
  <path style="fill: rgb(216, 216, 216); stroke-width: 5px; stroke-linecap: round; stroke: rgb(255, 255, 255);" d="M 182.175 344.165 L 188.706 337.282"/>
  <path style="fill: rgb(216, 216, 216); stroke-width: 5px; stroke-linecap: round; stroke: rgb(255, 255, 255);" d="M 173.32 335.174 L 179.851 328.291" transform="matrix(-0.043951, -0.999034, 0.999034, -0.043951, -147.065331, 522.727336)"/>
  <path style="fill: rgb(216, 216, 216); stroke-width: 5px; stroke-linecap: round; stroke: rgb(255, 255, 255);" d="M 172.947 324.494 L 179.478 317.611" transform="matrix(-0.043951, -0.999034, 0.999034, -0.043951, -136.785038, 511.205291)"/>
  <path style="fill: rgb(216, 216, 216); stroke-width: 5px; stroke-linecap: round; stroke: rgb(255, 255, 255);" d="M 173.428 345.223 L 179.959 338.34" transform="matrix(-0.043951, -0.999034, 0.999034, -0.043951, -156.991876, 533.325885)"/>
  <path style="fill: rgb(216, 216, 216); stroke: rgb(255, 255, 255); stroke-width: 5px; stroke-linecap: round;" d="M 181.01 393.295 L 180.422 309.33"/>
  <path style="fill: rgb(216, 216, 216); stroke-width: 5px; stroke-linecap: round; stroke: rgb(255, 255, 255);" d="M 306.544 329.868 L 313.075 322.985"/>
  <path style="fill: rgb(216, 216, 216); stroke-width: 5px; stroke-linecap: round; stroke: rgb(255, 255, 255);" d="M 307.121 340.025 L 313.652 333.142"/>
  <path style="fill: rgb(216, 216, 216); stroke-width: 5px; stroke-linecap: round; stroke: rgb(255, 255, 255);" d="M 306.714 350.188 L 313.245 343.305"/>
  <path style="fill: rgb(216, 216, 216); stroke-width: 5px; stroke-linecap: round; stroke: rgb(255, 255, 255);" d="M 297.859 341.197 L 304.39 334.314" transform="matrix(-0.043951, -0.999034, 0.999034, -0.043951, -23.069884, 653.433713)"/>
  <path style="fill: rgb(216, 216, 216); stroke-width: 5px; stroke-linecap: round; stroke: rgb(255, 255, 255);" d="M 297.486 330.517 L 304.017 323.634" transform="matrix(-0.043951, -0.999034, 0.999034, -0.043951, -12.789622, 641.911668)"/>
  <path style="fill: rgb(216, 216, 216); stroke-width: 5px; stroke-linecap: round; stroke: rgb(255, 255, 255);" d="M 297.967 351.246 L 304.498 344.363" transform="matrix(-0.043951, -0.999034, 0.999034, -0.043951, -32.996452, 664.032271)"/>
  <path style="fill: rgb(216, 216, 216); stroke: rgb(255, 255, 255); stroke-width: 5px; stroke-linecap: round;" d="M 305.549 399.318 L 304.961 315.353"/>
  <path style="fill: rgb(216, 216, 216); stroke-width: 5px; stroke-linecap: round; stroke: rgb(255, 255, 255);" d="M 122.148 362.89 L 128.679 356.007"/>
  <path style="fill: rgb(216, 216, 216); stroke-width: 5px; stroke-linecap: round; stroke: rgb(255, 255, 255);" d="M 122.725 373.047 L 129.256 366.164"/>
  <path style="fill: rgb(216, 216, 216); stroke-width: 5px; stroke-linecap: round; stroke: rgb(255, 255, 255);" d="M 122.318 383.21 L 128.849 376.327"/>
  <path style="fill: rgb(216, 216, 216); stroke-width: 5px; stroke-linecap: round; stroke: rgb(255, 255, 255);" d="M 113.463 374.219 L 119.994 367.336" transform="matrix(-0.043951, -0.999034, 0.999034, -0.043951, -248.560376, 503.689239)"/>
  <path style="fill: rgb(216, 216, 216); stroke-width: 5px; stroke-linecap: round; stroke: rgb(255, 255, 255);" d="M 113.09 363.539 L 119.621 356.656" transform="matrix(-0.043951, -0.999034, 0.999034, -0.043951, -238.280099, 492.167209)"/>
  <path style="fill: rgb(216, 216, 216); stroke-width: 5px; stroke-linecap: round; stroke: rgb(255, 255, 255);" d="M 113.571 384.268 L 120.102 377.385" transform="matrix(-0.043951, -0.999034, 0.999034, -0.043951, -258.486932, 514.287808)"/>
  <path style="fill: rgb(216, 216, 216); stroke: rgb(255, 255, 255); stroke-width: 5px; stroke-linecap: round;" d="M 121.153 432.34 L 120.565 348.375"/>
  <path style="fill: rgb(216, 216, 216); stroke-width: 5px; stroke-linecap: round; stroke: rgb(255, 255, 255);" d="M 238.209 347.524 L 244.74 340.641"/>
  <path style="fill: rgb(216, 216, 216); stroke-width: 5px; stroke-linecap: round; stroke: rgb(255, 255, 255);" d="M 238.786 357.681 L 245.317 350.798"/>
  <path style="fill: rgb(216, 216, 216); stroke-width: 5px; stroke-linecap: round; stroke: rgb(255, 255, 255);" d="M 238.379 367.844 L 244.91 360.961"/>
  <path style="fill: rgb(216, 216, 216); stroke-width: 5px; stroke-linecap: round; stroke: rgb(255, 255, 255);" d="M 229.524 358.853 L 236.055 351.97" transform="matrix(-0.043951, -0.999034, 0.999034, -0.043951, -112.047234, 603.596737)"/>
  <path style="fill: rgb(216, 216, 216); stroke-width: 5px; stroke-linecap: round; stroke: rgb(255, 255, 255);" d="M 229.151 348.173 L 235.682 341.29" transform="matrix(-0.043951, -0.999034, 0.999034, -0.043951, -101.766949, 592.074715)"/>
  <path style="fill: rgb(216, 216, 216); stroke-width: 5px; stroke-linecap: round; stroke: rgb(255, 255, 255);" d="M 229.632 368.902 L 236.163 362.019" transform="matrix(-0.043951, -0.999034, 0.999034, -0.043951, -121.973787, 614.195309)"/>
  <path style="fill: rgb(216, 216, 216); stroke: rgb(255, 255, 255); stroke-width: 5px; stroke-linecap: round;" d="M 237.214 416.974 L 236.626 333.009"/>
  <path style="fill: rgb(216, 216, 216); stroke-width: 5px; stroke-linecap: round; stroke: rgb(255, 255, 255);" d="M 365.816 288.123 L 372.347 281.24"/>
  <path style="fill: rgb(216, 216, 216); stroke-width: 5px; stroke-linecap: round; stroke: rgb(255, 255, 255);" d="M 366.393 298.28 L 372.924 291.397"/>
  <path style="fill: rgb(216, 216, 216); stroke-width: 5px; stroke-linecap: round; stroke: rgb(255, 255, 255);" d="M 365.986 308.443 L 372.517 301.56"/>
  <path style="fill: rgb(216, 216, 216); stroke-width: 5px; stroke-linecap: round; stroke: rgb(255, 255, 255);" d="M 357.131 299.452 L 363.662 292.569" transform="matrix(-0.043951, -0.999034, 0.999034, -0.043951, 80.511823, 669.068697)"/>
  <path style="fill: rgb(216, 216, 216); stroke-width: 5px; stroke-linecap: round; stroke: rgb(255, 255, 255);" d="M 356.758 288.772 L 363.289 281.889" transform="matrix(-0.043951, -0.999034, 0.999034, -0.043951, 90.792101, 657.546667)"/>
  <path style="fill: rgb(216, 216, 216); stroke-width: 5px; stroke-linecap: round; stroke: rgb(255, 255, 255);" d="M 357.239 309.501 L 363.77 302.618" transform="matrix(-0.043951, -0.999034, 0.999034, -0.043951, 70.585271, 679.667269)"/>
  <path style="fill: rgb(216, 216, 216); stroke: rgb(255, 255, 255); stroke-width: 5px; stroke-linecap: round;" d="M 364.821 357.573 L 364.233 273.608"/>
  <path style="fill: rgb(216, 216, 216); stroke-width: 5px; stroke-linecap: round; stroke: rgb(255, 255, 255);" d="M 399.043 313.289 L 405.574 306.406"/>
  <path style="fill: rgb(216, 216, 216); stroke-width: 5px; stroke-linecap: round; stroke: rgb(255, 255, 255);" d="M 399.62 323.446 L 406.151 316.563"/>
  <path style="fill: rgb(216, 216, 216); stroke-width: 5px; stroke-linecap: round; stroke: rgb(255, 255, 255);" d="M 399.213 333.609 L 405.744 326.726"/>
  <path style="fill: rgb(216, 216, 216); stroke-width: 5px; stroke-linecap: round; stroke: rgb(255, 255, 255);" d="M 390.358 324.618 L 396.889 317.735" transform="matrix(-0.043951, -0.999034, 0.999034, -0.043951, 90.057506, 728.535665)"/>
  <path style="fill: rgb(216, 216, 216); stroke-width: 5px; stroke-linecap: round; stroke: rgb(255, 255, 255);" d="M 389.985 313.938 L 396.516 307.055" transform="matrix(-0.043951, -0.999034, 0.999034, -0.043951, 100.337783, 717.013605)"/>
  <path style="fill: rgb(216, 216, 216); stroke-width: 5px; stroke-linecap: round; stroke: rgb(255, 255, 255);" d="M 390.466 334.667 L 396.997 327.784" transform="matrix(-0.043951, -0.999034, 0.999034, -0.043951, 80.130969, 739.134222)"/>
  <path style="fill: rgb(216, 216, 216); stroke: rgb(255, 255, 255); stroke-width: 5px; stroke-linecap: round;" d="M 398.048 382.739 L 397.46 298.774"/>
  <path style="fill: rgb(216, 216, 216); stroke-width: 5px; stroke-linecap: round; stroke: rgb(255, 255, 255);" d="M 339.912 346.648 L 346.443 339.765"/>
  <path style="fill: rgb(216, 216, 216); stroke-width: 5px; stroke-linecap: round; stroke: rgb(255, 255, 255);" d="M 340.489 356.805 L 347.02 349.922"/>
  <path style="fill: rgb(216, 216, 216); stroke-width: 5px; stroke-linecap: round; stroke: rgb(255, 255, 255);" d="M 340.082 366.968 L 346.613 360.085"/>
  <path style="fill: rgb(216, 216, 216); stroke-width: 5px; stroke-linecap: round; stroke: rgb(255, 255, 255);" d="M 331.227 357.977 L 337.758 351.094" transform="matrix(-0.043951, -0.999034, 0.999034, -0.043951, -4.999131, 704.286947)"/>
  <path style="fill: rgb(216, 216, 216); stroke-width: 5px; stroke-linecap: round; stroke: rgb(255, 255, 255);" d="M 330.854 347.297 L 337.385 340.414" transform="matrix(-0.043951, -0.999034, 0.999034, -0.043951, 5.281162, 692.764932)"/>
  <path style="fill: rgb(216, 216, 216); stroke-width: 5px; stroke-linecap: round; stroke: rgb(255, 255, 255);" d="M 331.335 368.026 L 337.866 361.143" transform="matrix(-0.043951, -0.999034, 0.999034, -0.043951, -14.925683, 714.885519)"/>
  <path style="fill: rgb(216, 216, 216); stroke: rgb(255, 255, 255); stroke-width: 5px; stroke-linecap: round;" d="M 338.917 416.098 L 338.329 332.133"/>
  <path style="fill: rgb(216, 216, 216); stroke-width: 5px; stroke-linecap: round; stroke: rgb(255, 255, 255);" d="M 205.908 376.383 L 212.439 369.5"/>
  <path style="fill: rgb(216, 216, 216); stroke-width: 5px; stroke-linecap: round; stroke: rgb(255, 255, 255);" d="M 206.485 386.54 L 213.016 379.657"/>
  <path style="fill: rgb(216, 216, 216); stroke-width: 5px; stroke-linecap: round; stroke: rgb(255, 255, 255);" d="M 206.078 396.703 L 212.609 389.82"/>
  <path style="fill: rgb(216, 216, 216); stroke-width: 5px; stroke-linecap: round; stroke: rgb(255, 255, 255);" d="M 197.223 387.712 L 203.754 380.829" transform="matrix(-0.043951, -0.999034, 0.999034, -0.043951, -174.599012, 601.454345)"/>
  <path style="fill: rgb(216, 216, 216); stroke-width: 5px; stroke-linecap: round; stroke: rgb(255, 255, 255);" d="M 196.85 377.032 L 203.381 370.149" transform="matrix(-0.043951, -0.999034, 0.999034, -0.043951, -164.318719, 589.9323)"/>
  <path style="fill: rgb(216, 216, 216); stroke-width: 5px; stroke-linecap: round; stroke: rgb(255, 255, 255);" d="M 197.331 397.76 L 203.862 390.877" transform="matrix(-0.043951, -0.999034, 0.999034, -0.043951, -184.524566, 612.051859)"/>
  <path style="fill: rgb(216, 216, 216); stroke: rgb(255, 255, 255); stroke-width: 5px; stroke-linecap: round;" d="M 204.913 445.833 L 204.325 361.868"/>
  <path style="stroke: rgb(255, 255, 255); fill: none; stroke-width: 4px;" d="M 167.82 178.74 C 191.385 178.74 206.115 204.25 194.332 224.659 C 182.548 245.068 153.091 245.068 141.308 224.659 C 135.609 214.786 135.867 202.565 141.978 192.942" transform="matrix(0.992035, -0.125966, 0.125966, 0.992035, -25.034396, 22.810114)"/>
  <path d="M 321.977 202.109 m -170.261 0 a 170.261 170.261 0 1 0 340.522 0 a 170.261 170.261 0 1 0 -340.522 0 Z M 321.977 202.109 m -164.255 0 a 164.255 164.255 0 0 1 328.51 0 a 164.255 164.255 0 0 1 -328.51 0 Z" style="fill: rgb(236, 237, 199);" transform="matrix(-0.99772, 0.067483, -0.067483, -0.99772, 583.23649, 502.029595)" bx:shape="ring 321.977 202.109 164.255 164.255 170.261 170.261 1@a5563cf6"/>
</svg>