<?xml version="1.0" encoding="utf-8"?>
<svg viewBox="0 0 500 500" xmlns="http://www.w3.org/2000/svg" xmlns:bx="https://boxy-svg.com">
  <circle style="fill: rgb(72, 69, 69);" cx="249.559" cy="251.91" r="239.193" transform="matrix(1.016422, 0, 0, 1.024231, -3.238862, -7.600605)"/>
  <path style="fill: rgb(216, 216, 216); stroke: rgb(0, 0, 0);" d="M 557.601 39.094"/>
  <path style="stroke-width: 15px; stroke: rgb(255, 255, 255); fill: none;" d="M 49.146 313.042 L 156.964 302.174 L 254.012 292.014" transform="matrix(-0.56092, 0.82787, -0.82787, -0.56092, 487.056549, 346.734298)"/>
  <path style="stroke-width: 15px; stroke: rgb(255, 255, 255); fill: none;" d="M 40.365 363.312 L 275.152 345.191 L 461.91 361.5"/>
  <path style="fill: rgb(216, 216, 216); stroke: rgb(0, 0, 0);" d="M 177.743 209.887"/>
  <path style="stroke-width: 15px; stroke: rgb(255, 255, 255); fill: none;" d="M 58.532 394.106 L 304.509 380.822 L 444.538 392.51"/>
  <path style="stroke-width: 15px; stroke: rgb(255, 255, 255); fill: none;" d="M 91.684 427.324 L 328.252 408.937 L 418.042 425.515" transform="matrix(0.999938, -0.011096, 0.011096, 0.999938, -4.623889, 2.853703)"/>
  <path style="stroke-width: 15px; stroke: rgb(255, 255, 255); fill: none;" d="M 275.129 308.793 L 382.947 297.925 L 479.994 287.765" transform="matrix(0.377498, 0.92601, -0.92601, 0.377498, 511.242179, -163.94661)"/>
  <path style="stroke-width: 15px; stroke: rgb(255, 255, 255); fill: none;" d="M 279.256 237.361 L 320.998 259.764 L 367.711 219.7" transform="matrix(0.454563, 0.890714, -0.890714, 0.454563, 389.972538, -157.372794)"/>
  <path style="stroke-width: 15px; stroke: rgb(255, 255, 255); fill: none;" d="M 100.003 210.774 L 145.669 226.481 L 196.774 198.392" transform="matrix(0.377498, 0.92601, -0.92601, 0.377498, 289.090515, -5.167169)"/>
  <path style="stroke: rgb(255, 255, 255); stroke-width: 10px; paint-order: fill; fill: rgb(255, 255, 255);" d="M 378.084 44.219 C 398.829 44.219 411.795 66.677 401.422 84.643 C 391.049 102.609 365.118 102.609 354.745 84.643 C 352.272 80.359 351.025 75.477 351.142 70.532" transform="matrix(0.145017, 0.989429, -0.989429, 0.145017, 393.688137, -313.259136)"/>
  <path style="stroke-width: 15px; stroke: rgb(255, 255, 255); fill: none;" d="M 304.676 308.97 L 412.494 298.102 L 509.542 287.942" transform="matrix(-0.56092, 0.82787, -0.82787, -0.56092, 882.547337, 128.832603)"/>
  <path style="stroke-width: 15px; stroke: rgb(255, 255, 255); fill: none;" d="M 355.534 206.702 L 401.2 222.409 L 452.304 194.32" transform="matrix(0.377498, 0.92601, -0.92601, 0.377498, 444.388009, -244.325873)"/>
  <path style="stroke-width: 15px; stroke: rgb(255, 255, 255); fill: none;" d="M -15.564 278.168 L 114.376 257.961 L 211.424 247.801" transform="matrix(0.222171, 0.975008, -0.975008, 0.222171, 336.635487, 94.657845)"/>
  <path style="stroke-width: 15px; stroke: rgb(255, 255, 255); fill: none;" d="M 17.118 210.904 L 38.252 213.199 L 89.357 185.11" transform="matrix(0.934421, 0.35617, -0.35617, 0.934421, 73.619728, -1.5325)"/>
  <path d="M 321.977 202.109 m -245.441 0 a 245.441 245.441 0 1 0 490.882 0 a 245.441 245.441 0 1 0 -490.882 0 Z M 321.977 202.109 m -236.783 0 a 236.783 236.783 0 0 1 473.566 0 a 236.783 236.783 0 0 1 -473.566 0 Z" style="fill: rgb(48, 47, 47);" transform="matrix(-0.99772, 0.067483, -0.067483, -0.99772, 585.640787, 430.031457)" bx:shape="ring 321.977 202.109 236.783 236.783 245.441 245.441 1@9214464f"/>
  <path style="stroke-width: 15px; stroke: rgb(255, 255, 255); fill: none;" d="M 117.521 375.031 L 225.339 364.163 L 322.387 354.003" transform="matrix(-0.871169, 0.490983, -0.490983, -0.871169, 590.542802, 574.079273)"/>
  <path style="stroke-width: 15px; stroke: rgb(255, 255, 255); fill: none;" d="M 208.877 280.789 L 254.543 296.496 L 305.648 268.407" transform="matrix(-0.074919, 0.99719, -0.99719, -0.074919, 558.194061, 47.072986)"/>
</svg>